/* XPM */
static char *_df783404a974b3bd09e0de01f0be435jcWEvXzdz364BYtH[] = {
/* columns rows colors chars-per-pixel */
"64 64 163 2 ",
"   c #9C3C1E",
".  c #9B3622",
"X  c #963A24",
"o  c #9C3D24",
"O  c #943F2B",
"+  c #9E3F29",
"@  c #A13D25",
"#  c #97411E",
"$  c #8B4428",
"%  c #964424",
"&  c #9B4125",
"*  c #95422A",
"=  c #9E432B",
"-  c #964B2D",
";  c #9C492D",
":  c #964431",
">  c #9B4230",
",  c #954931",
"<  c #9D4B33",
"1  c #9F4F38",
"2  c #9F5236",
"3  c #9E513A",
"4  c #A14127",
"5  c #A2442B",
"6  c #A7492F",
"7  c #A24432",
"8  c #A84736",
"9  c #A34B35",
"0  c #A74739",
"q  c #A24F3B",
"w  c #AA4F3C",
"e  c #A25235",
"r  c #A2523B",
"t  c #A9533D",
"y  c #A2583D",
"u  c #9D5643",
"i  c #9C5841",
"p  c #9E5749",
"a  c #A25645",
"s  c #AD5744",
"d  c #A55B44",
"f  c #AB5A45",
"g  c #AF5749",
"h  c #A65D4C",
"j  c #AA5B49",
"k  c #B15644",
"l  c #AF694F",
"z  c #B2624E",
"x  c #B9624F",
"c  c #AB6453",
"v  c #A76D57",
"b  c #AC6A55",
"n  c #AB6C5B",
"m  c #B36455",
"M  c #B86754",
"N  c #B36A55",
"B  c #B96952",
"V  c #B2665B",
"C  c #B36C5C",
"Z  c #B96C5D",
"A  c #A7705C",
"S  c #A9705D",
"D  c #B07357",
"F  c #B1705C",
"G  c #BC715A",
"H  c #B9795E",
"J  c #B56B60",
"K  c #AF7B65",
"L  c #AD7C6B",
"P  c #B47561",
"I  c #B97665",
"U  c #B37A65",
"Y  c #BA7A66",
"T  c #B67369",
"R  c #B97769",
"E  c #B37D6A",
"W  c #BB7C6A",
"Q  c #C47D67",
"!  c #B48162",
"~  c #B5806E",
"^  c #BB816C",
"/  c #BE8574",
"(  c #B58B75",
")  c #BC8B75",
"_  c #BC8579",
"`  c #B7897A",
"'  c #BC8A7A",
"]  c #C48173",
"[  c #C88072",
"{  c #C28B76",
"}  c #CC8D76",
"|  c #C18779",
" . c #C38B7C",
".. c #D28774",
"X. c #D18A75",
"o. c #CB9277",
"O. c #C3937E",
"+. c #CA937E",
"@. c #D29277",
"#. c #D1947F",
"$. c #C68F81",
"%. c #C39683",
"&. c #C59581",
"*. c #C69680",
"=. c #C59483",
"-. c #C69783",
";. c #C19384",
":. c #C09285",
">. c #C39387",
",. c #C69284",
"<. c #C79385",
"1. c #C39484",
"2. c #C49585",
"3. c #C49687",
"4. c #C49383",
"5. c #C89381",
"6. c #CB9382",
"7. c #CD9483",
"8. c #CE9782",
"9. c #C99482",
"0. c #C7958A",
"q. c #C69489",
"w. c #C89288",
"e. c #C89288",
"r. c #C4998B",
"t. c #C99B8B",
"y. c #C89E8E",
"u. c #C99A8C",
"i. c #D19783",
"p. c #D29682",
"a. c #D39A86",
"s. c #D79A85",
"d. c #D49E86",
"f. c #D49D86",
"g. c #D79D89",
"h. c #D39D8D",
"j. c #C69E92",
"k. c #CB9C92",
"l. c #CC9C90",
"z. c #CB9C92",
"x. c #D39E91",
"c. c #D89C91",
"v. c #D89C91",
"b. c #C6A294",
"n. c #C4A296",
"m. c #CBA191",
"M. c #CBA694",
"N. c #CAA696",
"B. c #CDA695",
"V. c #CEA796",
"C. c #CCA695",
"Z. c #CFAA98",
"A. c #CFAB9B",
"S. c #CEAC9B",
"D. c #D1A29A",
"F. c #D1A29A",
"G. c #D0AB99",
"H. c #D5AE9F",
"J. c #D2AD9D",
"K. c #CEACA0",
"L. c #CEACA0",
"P. c #D7AFA3",
"I. c #D2B0A4",
/* pixels */
"_ n C Z N S C D Z V D.E J S C C C D n Z E F.V Z S Z b D N Z V &.:.V Z N n S Z S Z V D.E Z S D C Z D n V E F.C J C Z S N Z D C / ",
"l = = 4 ; - 5 = ; % } r & < # ; ; # < & 3 } * ; ; & 2 5 & 9 * H H O 6 & ; ; = 5 < X } r * <   < = # < = 3 } * - = 5 - ; 4 = = l ",
"^ l N c V n m M n b v.P N Z x C C x Z b T v.b V M m n V m b b | { b b m C n N B n b v.G m Z M J C x C N G v.b C B m n V m N c ^ ",
"O.] O. .>.H.| { ' { e.{ (  .[ b.b.[ | ) { q.) ' | ' G.<. .'  .,.$.| '  .<.A.{ { ' ) 0.{ ) ' Q n.b.[ | ( { q.) ' { | P.:.' O.] O.",
"* & - - a } * - < = = ; % e X U U   1 % ; * = < ; $ o.a + , & & * = - > a } $ = 9 & : ; % q   U U o e % 5 < = < - * } a : - + = ",
"j k f s c s.a f g s a j t j e ] ] q f d g a s g f d g.c f j j d j f j s z g.p d g s a j t h e ] ^ t j y j u s g d a s.b f f s f ",
"y. .-.O.4.G. .4.,.4.S.t.7.:.-.l.k.-.&.7.u.K.6.,.1.4.C.q.&.$. .M.C.$.O.4.q.C.4.1.-.4.L.t.8.;.*.l.l.O.>.7.t.S.9.<.1. .G.-. .,. .y.",
"N 1 e 9 9 , t q 3 - 7.d 9 3 e 9 9 2 1 9 d 8.- 3 2 8 1 e 1 t O ^ E * t 1 r < 8 e 3 - 8.d 9 3 2 0 0 2 3 9 d 8., 3 q t , e 9 e < D ",
"N < e 9 1 , t e q - a.d 8 1 e 0 0 e 1 0 d i.; q q 0 < e 9 t O E Y * t 9 e < 8 e 1 < i.d 8 1 e 0 0 e q 9 d i.- q 9 w , q 9 2 < N ",
"m.4.-.6.1.Z.$.' 4.6.S.y.6.:.-.k.k.&.:.<.q.P.4.,.-.$.N.-.O.-.$.C.N.4.-.O.>.M.,.1.,.4.A.u.6.:.O.l.l.O.:.9.u.A.6.4.-. .G.:.4.9.4.m.",
"d s d a v p.3 c j s a j d h 3 / / e h d f p s f d i d.c d d f d d f d d c f.i d j f p j d h r _ / r h d f p f f d u a.b a f s d ",
"= 5 5 > f X.= ; 7 4 > 5 % 0 . I Y . 9 % = < = 7 ; * @.t 7 ; = = 4 = < 5 s o.% 5 7 4 > = % 0 o R Y . 0 % 5 > = 7 ; & X.j = 5 5 & ",
" .|  .' q.H._  .' ) u. .)  .] n.b.Q $.' ) u.) ' { ' S.,. .(  .O.&.' (  .q.A.' { ' ) 0.' )  .Q n.b.Q $.' ) 0.' '  ./ H.q.' O./ ' ",
"^ v n c n n V N v v x.P b F m S n m J n P h.v b N m S n N n v { { v v N C A V N b v x.P S C m n S m C n P x.b n N V S n c n v / ",
"z + & 4 4 * 5 & = X X.r @ <   5 5   < + r X.X = 5 o < @ @ 5 X G G . 5 @ = ; @ 4 = * X.e 4 <   5 5   7 + r } o = & 5 * 4 4 & o z ",
":.U I Q I E W W W P I.` R E U I R ! L R ' I.I E ~ W U I Y W T j.j.T W W U U R E R I I.' R E U Y R ! L R ` P.U W W W U Y Q U T ,.",
"E H ~ U ( I.Y W E W U I Y W T k.j.T W W Y U W U W P I.` E L U Y Y ! L R ' I.I R E W U I W Q T j.j.T W W E U R E W E I.) K ~ Y E ",
"4   7 & t X.X ; 5 o ; + @ 5 X H G X 5 @ = ; @ 5 = X X.t = 7 o 7 5   9 4 e X.* = = + = = @ 5 X G G X 5 @ 4 ; @ 4 5 X X.y & 5   = ",
"n B n N U x.b b B b A n V v b { { v b b C S b N n b m.P b C M S n m C S P x.v b B b A n b b v { { v b N n S b B n b h.I N n B b ",
"r.{ _ |  .u.) ) { ' S.q. .( ' O.O.' (  .-.S._ { ' { u.) )  .Q n.n.Q  .) ' 0.) ' { ' A.q. .` ' &.O.' ( $.,.A.' { ' { r.' | _ { r.",
"N * 7 @ = : & 5 5 * @.t 7 ; = 4 4 = < 5 s @.* = 7 4 > 5 % 0 . Y R . 0 % = < o 7 5 * o.t 7 ; = 4 = 4 < 7 t @.* ; 5 & : = 4 < X N ",
"H y h d h p f f d i d.c d h f d j s d d h g.3 c f s p j d h r ) _ r h d j p s j d i d.c d f f d d f d f c f.i d f f p j f h r U ",
"r.O.,.<.u.J.7.9.>.,.C.-.4.O.$.C.C.$.O.-.-.C.O.%.,.4.S.u.6.:.O.l.k.O.:.6.u.A.,.,.1.4.Z.>.O.O.,.C.N.$.4.O.>.C.,.>.<.9.P.u.<.:.+.r.",
"q 6 q < f p.- 3 e 0 < e 9 t * ^ E * t < q < 9 3 1 < i.d 8 1 e 0 0 e q 8 d i.< 1 e 8 < e q r * W W * t < e < 0 e 3 ; p.d 9 e 6 e ",
"q 9 q 9 d p.= 3 e 0 < e 9 t * U W O t < e < 0 e 1 < i.d 8 q e 0 0 e e 0 d i.- q e 0 < e 1 r * W W O t < e < 0 e 1 - p.f < q 6 q ",
"-.+.1.9.y.S.9.-.>.,.C.3.O.-.4.M.C.4.O.-.-.C.,.>.,.4.A.u.6.:.O.k.l.O.:.7.u.L.6.4.1.4.C.-.4.-.$.C.C.4.O.4.3.C.,.%.6.9.J.u.<.,.+.r.",
"U 3 h d j p s f d i g.c a f f d d f d d c d.i d j f p j d h 3 / / r h y f p s f d i d.c d j f d d f d d c f.i d f s p j d h r U ",
"l & 9 o 5 : 4 5 5 * @.r 7 < 4 & 4 4 < 7 t o.* 5 7 = = 5 % 0 . Y Y o 0 * 5 > = 7 5 * @.t @ < = = ; 4 < + s @.* 5 5 4 : ; o < & l ",
"-. ._ |  .r.) { { ' S.q. .(  .O.&.' (  .q.S.' { ' ) u.) )  .] b.n.Q  .) ' u.) ' { ' Z.q. .( ' O.O.| (  .q.S.' | ' ) r.O.| '  .-.",
"b N n V I m.b n N b A C n v v  .{ v b V n A m N b v x.P n J m n S m C n H x.v v N m A n n v b  .{ v v N n v N N b b h.P N V N n ",
";   5 & t ..  ; 5 @ ; @ @ 5 X Z G X 5 o 4 ; @ 5 = X } r = 7   5 7 o 9 + e X.X = 5 o < 4 @ 5 . G Z X 5 o = ; @ = ; o ..t & 5   4 ",
"E H W E ( I.E W E W U U Y Q T j.j.T Q W E U R E R I I.' I L ! R Y U L R ` I.I R E W U I Y W T j.j.T Q W I U W ~ E I I.( U ~ Y E ",
":.U Y Q Y K W E W I I.` R L E W Y ! L I ` P.E W E R U U W W T j.k.T W Y I U W E R I I.` T L U Y Y U L Y ' I.I W E W E I Q Y U :.",
"z + & @ & + 5 4 = X X.r 4 7 o + 5   < = r X.X 4 5 @ ; = @ 5 . G G X 6 @ = ; @ = = o } t o 9 o 7 5   9 @ t X.X = 4 4 * 4 @ & + z ",
"/ c b b n n V N A v h.P n C m S n m C n P x.v b B b A C N v v { { b v b n n b N b v m.P b P m S n m C n F m.v n V m S n b b c / ",
"' / O.' q.I._  .) ) u. .)  .Q b.n.Q  .)  .q.) ' | ' A.q. .( ' O.O.' (  .e.G.' { ' { u.) )  .Q n.b.]  .)  .q.) ' O./ I.-.' O.) ' ",
"= 5 5 ; s X.& - 7 = = = % 9 . R R . 0 % = < & 7 5 % o.s = - 4 = 5 = - 7 s @.* = 7 4 > 5 & 9 . Y Y . 9 * = = & 7 ; * X.f = ; @ 5 ",
"d s f a v f.u d j s p f d h e / _ r h d j p s j d i a.c d z f j d f f f c a.2 c f f p j d h 3 / / 3 j d j p s j d u a.c a d s f ",
"m.$.-.$.>.Z.$.-.,.6.K.y.6.:.O.z.k.O.:.6.u.K.6.4.-.<.M.>.O.O.4.C.C.$.O.O.-.C.O.%.,.4.S.u.9.:.-.k.j.-.:.7.u.S.9.4.-.$.Z.-.4.-.$.m.",
"N < e 9 1 : w 9 1 ; i.d 8 q e 0 0 e q 8 d 8.= 1 q 9 < e 9 t O E W * t < q < 9 3 1 < i.d 8 q e 0 0 e q 8 d i.< 1 9 w - q 9 2 < C ",
"S < q 9 q - w 9 q = i.d 8 1 e 0 0 e 1 0 d i.< 1 e 0 < e 1 t O W E O t 9 e < 0 e 1 ; i.d 8 q e 0 0 e q 8 d i.- q 9 w , q 9 e < b ",
"k.+.-.4.-.Z.$.4.4.4.K.t.6.:.-.z.k.-.:.6.u.S.4.,.>.-.C.>.-.O.$.C.C.,.-.O.-.C.$.>.q.4.L.u.6.:.O.l.l.O.:.7.u.K.+.4.:.$.A.-.4.-.$.m.",
"d k f a b f.i d f s p j d h r / / e h d j p f f d i f.h d d s d d f d d c d.3 d j s a j d h r _ / r h d f p f j d i s.c a d s f ",
"& 5 ; = j X.* = 7 = < = % 9 . Y Y . 0 % 5 > 4 7 5 * @.s 5 < = = 4 = ; 7 t o.- 5 7 + < = % 0 . R Y . 9 % 5 > = 7 ; * X.j < 5 5 & ",
"O./ O.' 3.P._  .' ) u.) ' $.Q n.n.Q  .) ) u.{ ' { _ S.-. .(  .O.&. .(  .q.S.' | ' ) u.' )  .Q n.n.]  .)  .r.{ '  ./ H.q._ O./ O.",
"^ b n c n n b N b b x.P n J m n S M C n P m.v b N b S C b v v { { v v m C A b B v b x.P n J m S n m C n F x.b v N V S n c n c ^ ",
"z + & 4 @ * 5 @ ; X X.r @ 9   5 7 X 9 o t } o = = @ ; = @ 5 X G G X 5 @ = ; @ = = X } e = 9   4 4   9 + t } X 4 = 5 * 4 4 & + z ",
":.P I Q Y E W E W I I.` T L ! Y Y ! L T ` I.I R E W U I R Q T j.j.T W W U U W E R I I.' I L ! Y R ! L R ` I.I W E R ! I Q U T :.",
"E I ~ U ' H.U W ~ W U U R Q T j.y.T W Y U I W U W I I.` R L U Y Y ! L R ` P.U R E W U I R Q T b.j.T W W I L W U W E P.' K E Y E ",
"= o 5 & t X.o = 5 o ; = @ 5 X Z Z X 5 @ 4 ; @ 5 = o } r + <   5 5   < = q } o = 5 @ - 4 @ 5 X G G X 5 @ @ < @ 5 ; X X.e & ;   5 ",
"b B b C U y.b b N c S C b v v {  .v v m C A b N n b h.P n C m n S z C b P x.v b N m A n b n b )  .v b b n S m N n b h.U C n M v ",
"r.{ ' |  .r.)  .{ ' S.-. .(  .O.&.' (  .q.S.' { ' ) u.' ' $.Q n.n.Q  .)  .0.) ' { ' A.q. .( | O.O. .(  .-.S.' { ) { r. .{ _ | -.",
"b & < @ = O 4 5 = * } s 7 < = = 4 = < 7 r @.% 5 7 = > 5 % 0 . I R . 8 * = < = 7 5 * o.t 7 < = = = = < = s @.% ; 5 4 : = @ < X N ",
"U r h d h p f f c i f.c d f s d d f d d c f.i d f f a f d h r / | a h y j p s f d i d.c d d s d d s f d c f.i d f f p j f h r U ",
"r.+.1.9.l.L.6.-.) -.C.-.4.O.$.C.C.4.4.4.-.N.O.-.4.6.L.u.9.:.-.z.k.O.:.7.u.S.6.,.1.4.Z.>.-.O.6.N.C.4.-.O.:.C.$.1.<.9.J.u.-.,.+.r.",
"q 6 e < f p.= 3 e 8 < e < t * W Y O t 1 e < 8 q 1 - i.d 9 q e 8 0 e q 8 d 7.< 1 e 8 < e < t * U Y * t < e < 0 q q - p.f < q 6 e ",
"q 9 e < c i.; 3 q 8 q e 1 t O Y W * t 9 e 1 8 q 3 < 8.d 9 3 e 9 9 e 3 9 d 8.- 3 q 8 < r 1 t O ^ Y O t < e q 8 q 3 - +.d < r 9 e ",
"q.6.:.6.*.K.*.<.&.4.C.q.4.$.4.M.C.$.O.4.q.C.4.1.-.9.S.t.7.:.9.y.u.-.>.7.u.S.6.-.&.4.C.-.4.O.$.C.N.$.&.$.-.C.O.1.-.9.L.t.8.>.6.u.",
"I t h s f u f g d a g.c j j s f d j j s c d.a d g s a j t j t ^ ] e j y j a s g h a g.c s j j j d g j j c g.d d g k u s s j r U ",
"b % < = - : = 5 - $ o.r > - = * = * , < a } $ ; < & : ; % e X I U o q % 5 * = < = $ o.r > - & * * = - > a } $ ; ; = : < & < * N ",
"-.{ _ |  .r.' )  .' G.<. .'  .O.6. .(  .e.G.| { ' ) q.| ( | [ b.n.Q | ( { q.) ' { ' G.e. .)  .-.-. .) $.<.G.|  .) ) r. .| / { -.",
"V B V Z R v.c b B m n Z m v N | | b b m Z n m M C b v.P b Z M C J x Z V P v.b C M M n Z m b c { { c v m C S m M V c x.R C V M V ",
";   < % r o.* - 5 = ; ; = ; X H H X 5 = ; ; = ; < X } r & < # = 9 # < & r } X ; ; & ; ; = ; X U H X 5 = 5 ; 4 ; - * } a * 1 # 5 ",
"C N P n E v.C C S Z S N N Z V :.:.n G N C n J v Z C F.E Z n D Z C D S J E D.C J S Z C D N Z V ;.>.V Z N D n Z S C V x.E b P B C "
};
