/* XPM */
static char *_c2ea7362028428fe0b991b376e21933gptmJlKDqth7dvdK[] = {
/* columns rows colors chars-per-pixel */
"64 64 7 1 ",
"  c None",
". c black",
"X c #010000",
"o c #000100",
"O c #000001",
"+ c #000200",
"@ c #000002",
/* pixels */
"                                                                ",
"                                                                ",
"                                                                ",
"                                                                ",
"                                                                ",
"                                                                ",
"                                                                ",
"                                                                ",
"                                                                ",
"                                                                ",
"                                                                ",
"                                                                ",
"                                                                ",
"                                                                ",
"                            ........                            ",
"                            ........                            ",
"                            ........                            ",
"                            ........                            ",
"                            ........                            ",
"                       ..................                       ",
"                       ..................                       ",
"                       ..................                       ",
"                       ..................                       ",
"                   ..........................                   ",
"                   ..........................                   ",
"                   ..........................                   ",
"                   ..........................                   ",
"                   ..........................                   ",
"              .........     ........     .........              ",
"              .........     ........     .........              ",
"              .........     ........     .........              ",
"              .........     ........     .........              ",
"              ....................................              ",
"              ....................................              ",
"              ....................................              ",
"              ....................................              ",
"                       .....        .....                       ",
"                       .....        .....                       ",
"                       .....        .....                       ",
"                       .....        .....                       ",
"                       .....        .....                       ",
"                   ....     ........     ....                   ",
"                   ....     ........     ....                   ",
"                   ....     ........     ....                   ",
"                   ....     ........     ....                   ",
"              .....    .....        .....    .....              ",
"              .....    .....        .....    .....              ",
"              .....    .....        .....    .....              ",
"              .....    .....        .....    .....              ",
"              .....    ....          ....    .....              ",
"                                                                ",
"                                                                ",
"                                                                ",
"                                                                ",
"                                                                ",
"                                                                ",
"                                                                ",
"                                                                ",
"                                                                ",
"                                                                ",
"                                                                ",
"                                                                ",
"                                                                ",
"                                                                "
};
