/* XPM */
static char *d310008354844d91d438014be1d393f6cmqBDWQSvw8fyTVR[] = {
/* columns rows colors chars-per-pixel */
"64 64 177 2 ",
"   c #060504",
".  c #0A0503",
"X  c #0C0A07",
"o  c #0E0D0B",
"O  c #110707",
"+  c #110A07",
"@  c #120E0D",
"#  c #0F100D",
"$  c #12110E",
"%  c #1A110E",
"&  c #140F10",
"*  c #180F10",
"=  c #141211",
"-  c #191514",
";  c #1B1916",
":  c #191718",
">  c #1D1B19",
",  c #211B17",
"<  c #231D1C",
"1  c #23211E",
"2  c #28221E",
"3  c #262322",
"4  c #2C2624",
"5  c #2E2825",
"6  c #2E2B29",
"7  c #312724",
"8  c #302B26",
"9  c #322D2C",
"0  c #33312E",
"q  c #363332",
"w  c #3B3534",
"e  c #3B3936",
"r  c #3E3B39",
"t  c #433C37",
"y  c #433D3A",
"u  c #46413D",
"i  c #4B423E",
"p  c #464442",
"a  c #4B4644",
"s  c #4B4946",
"d  c #4D4B49",
"f  c #534741",
"g  c #544A46",
"h  c #584A47",
"j  c #544D4B",
"k  c #594E4B",
"l  c #54524E",
"z  c #5A514D",
"x  c #5B5452",
"c  c #5A5953",
"v  c #5A5758",
"b  c #5C5958",
"n  c #605754",
"m  c #635A56",
"M  c #625758",
"N  c #645D5B",
"B  c #695E5C",
"V  c #66605E",
"C  c #69605B",
"Z  c #656462",
"A  c #6B6463",
"S  c #6A6967",
"D  c #6D6C6A",
"F  c #716663",
"G  c #736A66",
"H  c #746C6A",
"J  c #7A6E6B",
"K  c #74706C",
"L  c #7D726E",
"P  c #767473",
"I  c #7D7471",
"U  c #7D7975",
"Y  c #7B7778",
"T  c #7F7A79",
"R  c #81726F",
"E  c #827572",
"W  c #847A75",
"Q  c #897C77",
"!  c #89777B",
"~  c #847D7A",
"^  c #8B7C79",
"/  c #8B827D",
"(  c #90817E",
")  c #837F80",
"_  c #897F80",
"`  c #868382",
"'  c #8C8482",
"]  c #8B8985",
"[  c #8E8A89",
"{  c #938783",
"}  c #938B86",
"|  c #9A8D87",
" . c #948D8A",
".. c #9E8F8C",
"X. c #93908E",
"o. c #9C918C",
"O. c #938F90",
"+. c #969492",
"@. c #999393",
"#. c #9B9896",
"$. c #9E9A99",
"%. c #A08F8C",
"&. c #A0928E",
"*. c #A19592",
"=. c #A29A96",
"-. c #A09798",
";. c #A49D9B",
":. c #A89E9B",
">. c #A6A19D",
",. c #AAA29E",
"<. c #A6A3A1",
"1. c #ABA4A2",
"2. c #A9A8A6",
"3. c #ADAAA9",
"4. c #B1A6A4",
"5. c #B4AAA6",
"6. c #B3A6A8",
"7. c #B4AAA9",
"8. c #B9AEAB",
"9. c #BBB2AE",
"0. c #BAAFB1",
"q. c #B7B6B5",
"w. c #BDB4B2",
"e. c #BCBAB7",
"r. c #BEBBB9",
"t. c #C4B6B3",
"y. c #C3B8B4",
"u. c #C2B8B6",
"i. c #C6B9B5",
"p. c #C8BAB7",
"a. c #C5BCBB",
"s. c #C9BDBB",
"d. c #C4C0BE",
"f. c #CAC1BF",
"g. c #CCC1BE",
"h. c #C6C2C1",
"j. c #CBC4C1",
"k. c #CDC5C5",
"l. c #CEC5C4",
"z. c #CEC8C5",
"x. c #CECBC9",
"c. c #D0C6C5",
"v. c #D1C9C6",
"b. c #D2C9C6",
"n. c #D2C7C8",
"m. c #D1CBC9",
"M. c #D3CBCA",
"N. c #D9CECA",
"B. c #D5D1CF",
"V. c #DAD1CD",
"C. c #D6D3D2",
"Z. c #DED6D3",
"A. c #DED6D4",
"S. c #DCD6D6",
"D. c #DCD8D5",
"F. c #DDDAD8",
"G. c #E1D6D5",
"H. c #E1D8D5",
"J. c #E0D7D8",
"K. c #E3DADA",
"L. c #E5DCDB",
"P. c #E3DDDC",
"I. c #E8DEDC",
"U. c #E6E1DF",
"Y. c #E8E0DD",
"T. c #E1DFE0",
"R. c #E6E4E3",
"E. c #EAE4E3",
"W. c #EDE9EA",
"Q. c #F1E9E7",
"!. c #F3EFED",
"~. c #F7EFEC",
"^. c #F4F4F3",
"/. c #FAF5F3",
"(. c #FAF9F7",
"). c #FEFDFC",
"_. c #FFFEFF",
/* pixels */
"$ 3.q = = o > 6 l s : # #.S.P.k.} H q + @ t A @ < S.z.;.E.k.@ =.1.6 > >.$.= * k.9.g.v.>.v.f.g.g.N.$ 8 v.D 0.! J o r.b q - ).D @ ",
"3.+.#.#.+.O.+.+.$.+.+.e.t.u.t.s.t.t.t.t.t.t.y.L.6.7.5.l.7.1.@ R |  .,.:.E + } | | &.o.| | | &.&.| $ | / ~ ^ ^ ! ^.F.~.D.S.H.P.@.",
"` #.+.+.@.+.@.+.+.@.+.u.t.t.t.t.t.t.t.t.t.t.t.l.5.7.7.7.7.4.@.I I L J E L @ ............o.o.o.&.o.$ / Q ^ ^ ^ Q ; D.G.S.S.G.G.a.",
"] +.+.@.@.@.@.+.+.@.+.6.u.t.t.t.t.y.t.t.t.w.t.u.7.7.;.7.8.7.8.- L L L L L @ +.o.&...o.o.( o.o.| o.$ Q Q ^ ^ ^ E ~ - H.H.H.S.G.6 ",
"v +.l +.@.#.+.Z @.@.+.-.t.t.t.t.p.9.t.y.:.y.t.9.G 6.7.7.7.:.7.@ L I L E E @ b o.G ' _ ..k G @.x z - A W ~ B E ^ k a D.S.u.K.D.X ",
"# s s a l d a s d s 3 * t.w.,.w.=.=.9./ ~ @.*.9 > x N = N 3 3 - ; < 9 9 q o @ = = * = X = & = & = $ = @ = = = - o = @ @ = o - = ",
"# 9 Z = = & b _ 0.k.c.g.< @ n.v.v.v.v.l.* 7.=.#.@.} ` ~ Y H H ;.,.:.* W ^ ^ Q Q h.M.S.P.k.7.7.7.5.Z.y.3.7.D.P.K.7.5.5.8.P.I.u.* ",
"o Q E / j.E ^ W ! g.^ Q Q $ ..o.@.o.o. .= L L L J E I E E I W ~ J L * { ^ ! Q Q ^ + J.w.7.7.a.I.K.H.7.7.7.7.7.c.7.7.w.u.6.7.7.d ",
"B ^ ^ ^ ^ ^ ^ ^ ^ ^ ^ ^ ! - %...o.o...| = I L L R L L L L L L L L L * ^ Q ^ ^ ^ ^ ^ 7.7.K.w.7.7.7.7.5.7.7.7.l.K.k.S.7.7.7.7.7.+ ",
"t ^ Q ^ ^ ^ ^ ^ ^ ^ ^ ^ ^ % | ..B o.o.o.= u L L L J L L L L H L G E = W G W W f L k - 5.7.7.7.7.7.7.7.7.7.7.7.7.7.7.7.7.7.7.7.y ",
", ! ^ ^ ^ ^ ^ ^ ^ ^ ^ ^ Q = $.).P.(.W.B.: ^.q.H < ).e.= $ I - % < 9 & u @., ; , 3 w = 6.7.7.7.7.7.7.7.7.4.7.7.7.7.7.7.7.7.7.7.y ",
"7 ^ Q Q Q ^ ^ / ^ ^ ^ ^ ^ = k.k.v.k.k.j.K.S.R.S.D.G.G.r.,.o.....&.....| ......v.....o ' 6.7.7.7.7.6.7.7.7.7.7.5.7.7.7.5.7.7.7.4 ",
"t ^ ^ ^ W Q ^ ( ^ ^ ^ ^ ^ @ c.c.k.c.c.j.. D.D.z.H.G.G.1.......%...| ..........%.....i + $.7.7.7.7.7.7.7.5.5.5.5.7.7.5.5.7.7.7.3 ",
"< ! ^ f W / W g ^ ^ ^ ^ k @ c.c.4.7.w.s.k.; N.G.G.D.D.w @...&.%.........{ %...| ....@.  g 7.7.7.7.7.5.5.5.5.8.5.5.5.5.5.7.5.5.0 ",
"@ N k f i / g z L W / ~ j = $.1.>.c $.q.7.o 2.3.2.r.1.- r d x l g g l D a j j v z _ x & q 7.7.8.4.4.5.f F >.,.g z 8.5.8.i 5.5.@ ",
"$ $ & = = : - = $ $ o o = $ $ = o $ @ @ - $ $ # # = $ $ = & @ = - @ = & * @ & : @ 9 = > = * o * * - - = $ $ y $ $ @ = @ - = = = ",
"= C.H.K.F.F.> m.N.l.(.h.k.= u.n.P.P.t.t.u.J.I.T.T.T.- S.+.S.[ #.+.#.O.F.3.+.O.+.+.q.+.+.F.F.C.# 6 T.k.).n.c.k.N.n.n.k.k.G.m.R.= ",
"$ D.Z.S.Q.H.C.z.c.c.k.m.k.3 t.t.p.G.t.t.t.p.s.t.t.t.-  .@.+.@.+.+.@.+.S.O.@.@.@.O.#.O.@.7.r.S.= 0.k.c.c.c.c.c.c.c.c.c.c.n.c.c.= ",
"j Z.N.Z.H.H.G.@ c.c.c.c.c.t t.t.t.t.t.t.t.p.p.t.t.t.- @.@.@.@.@.@.@.@.@.@.@.@.@.@.@.#.h.7.$.$ h.c.c.k.j.n.c.c.c.c.c.c.c.c.c.c.= ",
"= D <.r >.U  .. <.;.o.1.` w t.t.t.t.t.t.t.t.t.t.t.t.= @.@.@.@.@.@.@.@.@.@.@.@.@.@.@.+.+.+.$.= m.c.k.N.v.c.c.k.n.c.c.s.k.c.c.v.+ ",
"; ' ` $ = - ; 1 6 q s S c 7 t.t.t.t.t.t.t.t.t.t.t.t.= +.+.@.@.@.@.@.@.O.@.@.@.@.@.@.@.@.@.9 = X @ $ - < 4 w H  .6 a d y 9 b @ = ",
"I R ,.;.=.=.o.^ L L L L L 4 t.t.t.t.t.8.t.t.t.t.t.t.: @.+.@.@.@.@.@.@.@.@.@.O.@.@.@.@.@.@.D ` S = 8.4.s.s.*.:.&.*.t.c.t.:.&.p.L ",
"~ L L L L L I L L L L L I 1 t.t.t.t.t.8.t.t.t.t.t.t.  +.+.@.@.@.@.+.@.@.@.@.@.@.@.@.@.+.+.@.@.X > %.....%...%.%...............} ",
"i R L L L L L L L L L L y $ y.u.p.p.t.*.t.t.:.*.1.w.= d +.+.d +.+.T v j S +.O.l ` +.+.@.+.+.Z - @.| ..*.....o.@.%.%...&.&.o.o.n ",
"$ - @ - = - - - - ; , ; = = = & % % @ @ = $ = = = @ @ ; o @ = @ & = = > s o > 3 s 6 = = # 1 o o > r > @ $ - % $ $ @ $ @ $ - % $ ",
", s.y.v.w.w.9.y.y.v.c.s.8.y.N.$ c.c.S.R.k.m.k.~ k.v.t.y.y.u.;.= J @.| v.w.l d k.> # # B.z.).).).).).).= ,.I L =.,.1.2.,.,.,.,.0 ",
"w ..o.&...o.o...%...&...o.....$ v.c.k.k.c.k.k.u.t.t.V.y.t.w.w.- } %.....o.o.u.o.I $ j.v.k.c.z.z.c.~.m.r <.E L L L L 1.o.L R L a ",
"w o.......o...%...........o.o.@ z.c.c.c.c.c.= y.y.y.w.y.t.u.t.@ %.....,.o...&.....@ c.c.k.z.k./.c.c.g.= x L L L E ~ / } L L R ; ",
"9 -.G *...@.G | &.o.o.o.I ..A o <.;.>.<.X.<.= ` X.$.p y $.@.3 * %...............o.- c.c.c.c.c./.l.k.c.c.O L L L L R L R L L L F ",
"@ - ' L @ @ - t H ' [ 3.d.z.k.r. .o : $.] Z l r 9 3 > ; N r.O.* ........o.%.%...~ k.c.c.c.c.c.c.).j.c.c.c.$ L L L L L L L L L R ",
"; 8.6.7.7.6.7.7.7.7.7.7.7.7.7.7.7.7.= +.+.@.@.+.<.7.r.k.x.;.#.* ..............o.I n.c.c.n.k.c.c.c.c.c.c.v.$ E L L L L L L L R 2 ",
"@ 8.7.7.7.7.7.7.7.7.7.7.7.7.7.7.7.7.@ +.@.@.+.@.@.@.@.@.@.@.X.- %...| %.......%.B m.c.c.n.:.c.c.c.l.c.c.v.- R L L L L L L L L $ ",
"@ 5.7.7.5.` 7.7.5.:.1.7.7.7.7.7.5.g $ S +.+.+.+.+.+.+.X.+.#.+.= o.H x ....k S x p s k.k.k.k.s.k.z.k.1.c.k.= k K L t u L L t K , ",
"= , 1 - - = $ - ; ; 4 w l r B q ; $ $ # - = $ = = = = o # $ $ = - 6 > = = = = @ @ * - 2.>.a = $ s Z 1 K @ @ o - $ r w ; 5 u 9 $ ",
"- n.v.b.c.v.k.N.c.v.N.- - N.).).).).g  .,.c c ,.1.o c.c.9.a.w.5.f.p.f.5.H V.V.I.K.N.w.N.P.k.w.P.L.= ^.R.S.Q.^.).R.(.(./.).F.).o ",
"* %...%...%.o...%.t.o.I k.k.c.).z.z.+ L ,.1.,.>.L $ W ^ ^ ^ / ^ ^ ^ | ^ 8.p.t.t.p.t.t.t.t.t.t.t.t.r.c.k.c.c.c.m.F.G.D.H.G.H.S.U ",
"* %.....| ............ .z.k.c.k.l.c.v.F L L L L L w Q ^ ! ^ ^ ^ ^ ^ ^ Q / t.t.t.t.t.t.t.t.t.t.t.t.z c.c.k.c.c.n.X D.S.w.G.S.G., ",
"= &.o...o.o.o.....| ..{ z.l.s.k.v.k.l.- L L L L L @ Q ^ Q ~ ^ ^ ^ W ^ ~ / u.t.t.t.t.8.t.t.t.t.t.t.X.c.c.;.1.,.u.d.Y l.Z.Z.G.D.@ ",
"% w x x k j l u f x N $ ;.l.1.o.>.1.1.; y u A N N @ g k j g g g k g x s @ } w.t.u.u.;.-.u.;.$.#.w.@ b 1.$.3 P 1.1.= 3.1.~ 7.y @ ",
"+ I.L.H.I.K.N.v.U.K.L.Y.G.G.Y.I.L.I.Y.Y.P.I.H =   !.P e 6 q s v <.3.= @ = a.B.S.S.C.B.#.< & @ C.0 $ @ @ $ + = = = = # $ = @ = $ ",
"= u.I.I.c.t.t.t.a.G.t.t.t.t.I.t.y.t.y.y.f.V.1 < j.c.c.c.v.c.c.c.c.m.n.@ = +.@.1.S.@.@.@.@.k.$.@.3.o L L ,./ ] o.o.o.E L L L L - ",
"+ y.t.t.t.t.s.N.I.s.t.t.t.t.t.t.y.y.y.y.9.y., v.c.c.c.c.c.c.c.c.c.c.v.o = @.+.@.O.@.@.@.@.@.@.@.@.$ L L L R L L L L L L L L L $ ",
"+ t.t.t.t.t.t.y.t.t.t.t.t.t.t.t.t.t.t.p.p.y.@ m.v.c.,.c.c.c.v.a.z.z.k.- = @.@.+.@.@.@.@.@.@.@.+.@.o L L L L L L L L L L L L G $ ",
"* u.t.t.t.t.t.y.t.t.t.t.t.t.t.t.t.t.t.t.y.+ $ ; ; 3 0 u ` A p x p p r $ * @.@.@.@.O.@.@.@.@.@.@.@.$ 0 y t s q w y y y u u y 1 $ ",
", t.t.t.t.t.t.t.t.t.t.t.t.t.t.t.t.t.t.t.y.w p.t.v.5.4.:.:.s.j.N.u.4.N.@ = @.@.@.@.@.+.@.@.@.@.@.@.- 1 ^.P o ).1.+.> ).l.K.R.).- ",
"@ t.t.t.t.t.t.t.t.t.t.t.t.t.t.t.p.t.t.t.U *...| ....%.%.&...&.o.%.| .._ = @.@.@.@.@.` +.@.@.@.@.@.$ Z.S.I.Z.D.D.H.$ k.c.z.z.k.= ",
"* t.t.p.t.t.t.t.t.t.t.t.t.t.t.t.t.t.t.1.@ | ..........%...............n = +.@.@.@.@.) +.@.#.@.@.@.@ D.Z.D.H.K.G.D.x.l.c.c.l.v.X.",
"O t.t.7.*.t.t.t.t.8.t.t.t.*.y.t.t.t.t.-.= ........%.%.E ..%.........| p = +.+.+.+.+.d +.+.Z d O.+.- S.G.G.u.S.K.6 z.s.s.,.8.v.$ ",
"+ @.@.=.@.,.G ,.=.=.@.:.*.-.*.=.*.-.-.X = d y @ = @ @ @ - = = $ - = - = # = = = > = & & @ & = $ $ = $ o = @ = = @ $ $ % X $ @ $ ",
"+ w.....y.y.l.g.v.9.@ ).(.).D.D.x.(./.o k.F.F.<.2.h.C.x.$.+.x.D.C.F.C.C.= ;.N.K.R.F.M.V.q.d.k.z.8.L.S.x $ @ n G 7 , + @ % k 7.- ",
"> ^ ^ ^ ^ ^ Q W ^ Q ; c.c.c.k.c.k.c.C.x @.@.@.@.+.@.+.@.@.@.@. .+.@.@.+.+.1.7.6.6.7.7.7.7.w.7.5.7.7.7.4.= Q ^ ^ ^ ^ ^ Q ^ ^ Q - ",
"* ^ ^ ^ ^ ^ m W ~ / 5 l.c.c.c.k.n.k.a.* @.+.@.@.@.@.@.@.@.@.@.@.@.@.+.+.O.7.7.5.7.7.7.7.7.7.7.5.7.7.7.8.$ ^ ^ ^ ^ ^ ^ ^ ^ ^ Q $ ",
"* ^ Q Q ~ h / F / o c.w.1.:.,.1.7.c.m.0 @.+.+.+.] @.@.+.+.+.@.@.@.@.+.+.s 7.7.5.5.7.8.5.7.5.5.8.5.4.6.5.@ ^ ^ Q W Q Q Q / Q ^ $ ",
"@ - k k g z g z p - 8.4.,.Z ; 1.>.1.a - @.] d l d [ +.~ d T @.@.~ +.@.+.$ , A N N C N m N N C c m N V y = g h g k g a g i f g - ",
"@ o  .@.} - $ - I 1.1.,.@ * J.T.k.n l k.F.- $ $ & @ = = - o $ $ o @ I P.).).(.).- D.K.).d.R./.).r = 1.H A ~  .b [ u.~ P P / ] o ",
"$ J I L L ,.I L E L J 4.& T.8.n.7.K.7.7.7.7.o.$ ..c.8...z.o.o.o.w.= J.S.H./.D.Y.= v.l.v.M.D.v.c.4 *.o...&...@.%.| ......c.o.o.$ ",
"$ L L | ,.,.;.,.,.#.L L @ 7.7.7.7.7.7.7.7.7.8.@ ....| ..:.o.o...c.6 D.H.G.S.(.G.G.$ N.c.c.c.c.c.l...o.o.&.| %.%...............= ",
"$ R L L L L L L L L L L $ 5.7.7.s.7.7.7.6.7.5.$ ....*...*...%...g.$ D.D.7.D.D.f.D.>.j.k.c.c.m.d.< ~ o.| o.o.| %...Q o.o.o...o.@ ",
"$ R L L L L L L L L L % 4.7.7.7.I.7.7.7.7.7.7.$ ..............%.=.# $ q $ $ $ $ $ . - @ @ @ @ $ @ x n / B n n F  .h z m ' h x - ",
"$ J L L L L L L L L @ + 7.7.7.c.7.7.7.7.7.7.7.- %...............o.>. ./ >.,.;.#.} ' ~ W E $.* N.c.Z.Y.K.N.y.y.g.G.P.I.K.L.I.L.- ",
"$ I L L L L L R L L $ w.7.7.7.7.7.7.8.:.7.7.5.$ %.........X...%.o.H L L L L L L L L L L L t ' t.t.t.t.t.t.t.t.t.t.t.t.t.t.t.t.V.",
"$ L L L L L L L L L $ 7.7.8.n 7.7.7.@.7.7.7.,.= %...&.........o.@.E L L L L L L L L L L L , H t.t.t.t.t.t.t.t.t.t.t.t.t.t.t.t.t.",
"= i u F L C y n I F , M 7.B 1.1.7.5.k 7.7.4.g @ L b g ^ o.&.z @.{ r z L G G L L L L L L L = m t.t.t.t.t.y.y.y.y.t.t.y.9.t.y.t.y.",
"$ @ u t , 1 w @ $ - o @ < , % ' % $ @ g k @ @ $ @ = * = @ - 4 < = = = $ @ $ $ $ % $ $ @ $ = @ $ 7 a x C h u 8 2 % % $ % % 2 t X "
};
