/* XPM */
static char *a0fa168be30b49929a7441f6fbb326c7T3z9QpBNwnvM4ylu[] = {
/* columns rows colors chars-per-pixel */
"64 64 40 1 ",
"  c None",
". c black",
"X c #010000",
"o c #020000",
"O c #0A0202",
"+ c #150505",
"@ c #160505",
"# c #180606",
"$ c #190606",
"% c #1D0707",
"& c #240909",
"* c #250909",
"= c #340D0D",
"- c #350D0D",
"; c #360D0D",
": c #370D0D",
"> c #401010",
", c #411010",
"< c #5E1717",
"1 c #5F1717",
"2 c #882121",
"3 c #892121",
"4 c #972525",
"5 c #982525",
"6 c #992525",
"7 c #BF2E2E",
"8 c #C12F2F",
"9 c #C22F2F",
"0 c #C32F2F",
"q c #D53434",
"w c #D93535",
"e c #DA3535",
"r c #DE3636",
"t c #E03737",
"y c #E13737",
"u c #EA3939",
"i c #FD3E3E",
"p c #FE3E3E",
"a c #FF3E3E",
"s c #FF3F3F",
/* pixels */
"                                                                ",
"                                                                ",
"                                                                ",
"                                                                ",
"                                                                ",
"                                                                ",
"                                                                ",
"                                                                ",
"                                                                ",
"                                                                ",
"                                                                ",
"                                                                ",
"                            ........                            ",
"                        ................                        ",
"                      ....................                      ",
"                     ........O+%%+O........                     ",
"                   .......&160qrrq761&.......                   ",
"                  ......-6tasassssssat6-......                  ",
"                 .....$3usaaaaaaaaaaaasu3$.....                 ",
"                .....-0aaaaaaaaaaaaaaaaaa0-.....                ",
"                ....,esaaaaaaaaaaaaaaaaaase:....                ",
"               ....-eaaaaaaaaaaaaaaaaaaaaasr-....               ",
"              ....$0saaaaaaaaaaaaaaaaaaaaass0$....              ",
"              ....3aaaaaaaaaaaaaaaaaaaaaaaaaa3....              ",
"             ....:uaaaaaaaaaaaaaaaaaaaaaaaaaau:....             ",
"             ....6saaaaaaaaaaaaaaaaaaaaaaaaaas6....             ",
"             ...&taaaaaaaaaaaaaaaaaaaaaaaaaaaat&...             ",
"             ...1aaaaaaaaaaaaaaaaaaaaaaaaaaaaaa1...             ",
"            ....6saaaaaaaaaaaaaaaaaaaaaaaaaaaas4....            ",
"            ...O7saaaaaaaaaaaaaaaaaaaaaaaaaaaas7O...            ",
"            ...+qsaaaaaaaaaaaaaaaaaaaaaaaaaaaasq+...            ",
"            ...%rsaaaaaaaaaaaaaaaaaaaaaaaaaaaasr%...            ",
"            ...%rsaaaaaaaaaaaaaaaaaaaaaaaaaaaasr%...            ",
"            ...+qsaaaaaaaaaaaaaaaaaaaaaaaaaaaasq+...            ",
"            ...O7saaaaaaaaaaaaaaaaaaaaaaaaaaaas7O...            ",
"            ....6saaaaaaaaaaaaaaaaaaaaaaaaaaaas4....            ",
"             ...1aaaaaaaaaaaaaaaaaaaaaaaaaaaaaa1...             ",
"             ...&taaaaaaaaaaaaaaaaaaaaaaaaaaaat&...             ",
"             ....6saaaaaaaaaaaaaaaaaaaaaaaaaas6....             ",
"             ....-uaaaaaaaaaaaaaaaaaaaaaaaaaau-....             ",
"              ....3aaaaaaaaaaaaaaaaaaaaaaaaas2....              ",
"              ....$0saaaaaaaaaaaaaaaaaaaaaas0#....              ",
"               ....-esaaaaaaaaaaaaaaaaaassse-....               ",
"                ....:esaaaaaaaaaaaaaaaaaasr:....                ",
"                ....o:0ssaaaaaaaaaaaaasaa0-.....                ",
"                 .....#3usaaaaaaaaaaaasu3+.....                 ",
"                  ......-6rassssssssar6-......                  ",
"                   .......&167qrrq741&.......                   ",
"                     ........O+%%+O........                     ",
"                      ....................                      ",
"                        ................                        ",
"                            ........                            ",
"                                                                ",
"                                                                ",
"                                                                ",
"                                                                ",
"                                                                ",
"                                                                ",
"                                                                ",
"                                                                ",
"                                                                ",
"                                                                ",
"                                                                ",
"                                                                "
};
