/* XPM */
static char *_145e103d5a145b0a90a7be55bd13e495Fx7zlQDxrvbuE97[] = {
/* columns rows colors chars-per-pixel */
"64 64 205 2 ",
"   c #000414",
".  c #050916",
"X  c #00051B",
"o  c #010B1D",
"O  c #080D1C",
"+  c #07101F",
"@  c #000520",
"#  c #010D23",
"$  c #000E29",
"%  c #031224",
"&  c #0A1424",
"*  c #03142B",
"=  c #0A162A",
"-  c #05192D",
";  c #0B1A2D",
":  c #0D1927",
">  c #101729",
",  c #121D2D",
"<  c #111320",
"1  c #031632",
"2  c #091731",
"3  c #041A33",
"4  c #0B1C33",
"5  c #041B39",
"6  c #0D1E38",
"7  c #121E32",
"8  c #10202F",
"9  c #1B212D",
"0  c #0E2235",
"q  c #0D223B",
"w  c #07223D",
"e  c #132234",
"r  c #1A2435",
"t  c #14243B",
"y  c #1A263A",
"u  c #15293D",
"i  c #1B2A3D",
"p  c #1F313F",
"a  c #232C3D",
"s  c #262A36",
"d  c #24313F",
"f  c #0D2441",
"g  c #0F2B43",
"h  c #132642",
"j  c #152A42",
"k  c #1C2C43",
"l  c #142C4B",
"z  c #1B2F4B",
"x  c #1D3146",
"c  c #1D324B",
"v  c #17314A",
"b  c #182F51",
"n  c #1C3553",
"m  c #1E3955",
"M  c #212E43",
"N  c #252F46",
"B  c #233245",
"V  c #293344",
"C  c #23344B",
"Z  c #2A364A",
"A  c #26394D",
"S  c #2B3A4D",
"D  c #323C4E",
"F  c #223651",
"G  c #253A53",
"H  c #2B3D53",
"J  c #243C5A",
"K  c #2A3E5A",
"L  c #303E53",
"P  c #313F5C",
"I  c #37404F",
"U  c #2E4257",
"Y  c #26415C",
"T  c #2C425C",
"R  c #2F495E",
"E  c #324255",
"W  c #3A4354",
"Q  c #33445B",
"!  c #39475B",
"~  c #36495E",
"^  c #3A4B5D",
"/  c #3B4956",
"(  c #2D4562",
")  c #2E4964",
"_  c #2B4A69",
"`  c #324662",
"'  c #344A64",
"]  c #3B4C64",
"[  c #354D6A",
"{  c #3B4E6A",
"}  c #3C5165",
"|  c #36516D",
" . c #3C526C",
".. c #355061",
"X. c #3A4F71",
"o. c #355372",
"O. c #3C5472",
"+. c #3E5974",
"@. c #3D5779",
"#. c #3D5B7A",
"$. c #414C5D",
"%. c #484F59",
"&. c #404E64",
"*. c #425266",
"=. c #4A5463",
"-. c #42546C",
";. c #49556A",
":. c #44596D",
">. c #4A5A6D",
",. c #4B5966",
"<. c #535D6E",
"1. c #425672",
"2. c #445A74",
"3. c #4D5E75",
"4. c #4A5C74",
"5. c #445C7A",
"6. c #4A5E7A",
"7. c #435778",
"8. c #515D72",
"9. c #505E7B",
"0. c #4E606E",
"q. c #50606F",
"w. c #4D6175",
"e. c #46607C",
"r. c #4C627C",
"t. c #516375",
"y. c #53647C",
"u. c #59657B",
"i. c #54697C",
"p. c #5B6A7E",
"a. c #5C727F",
"s. c #636D7A",
"d. c #445E82",
"f. c #456283",
"g. c #4C6482",
"h. c #4E6984",
"j. c #466289",
"k. c #4C668A",
"l. c #4C6A8A",
"z. c #536682",
"x. c #586786",
"c. c #546A84",
"v. c #5B6C84",
"b. c #546C8A",
"n. c #5A6E8A",
"m. c #546788",
"M. c #5D7186",
"N. c #55728D",
"B. c #5C728D",
"V. c #4E6A92",
"C. c #586F91",
"Z. c #556D91",
"A. c #557292",
"S. c #5C7492",
"D. c #5F7995",
"F. c #59759A",
"G. c #626C82",
"H. c #647386",
"J. c #63748C",
"K. c #6A778E",
"L. c #66798D",
"P. c #6A7A8D",
"I. c #687685",
"U. c #737B8E",
"Y. c #627692",
"T. c #647A94",
"R. c #6A7D93",
"E. c #627C9A",
"W. c #6C7E99",
"Q. c #717D91",
"!. c #667FA3",
"~. c #6F8196",
"^. c #6C839C",
"/. c #6A859F",
"(. c #748296",
"). c #73849C",
"_. c #75899E",
"`. c #7A8B9E",
"'. c #6E8AA3",
"]. c #6E86A0",
"[. c #7286A2",
"{. c #748AA3",
"}. c #7A8DA4",
"|. c #738EAC",
" X c #7C91A5",
".X c #7B92AB",
"XX c #7D94B3",
"oX c #7D98B5",
"OX c #818D9B",
"+X c #8190A7",
"@X c #8295AC",
"#X c #879EAE",
"$X c #839AB3",
"%X c #8CA2BA",
"&X c #8FA8BC",
"*X c #95A3B6",
"=X c #91A5BE",
"-X c #99AABE",
";X c #A3AFBD",
":X c #97ABC5",
">X c #9FB0CA",
",X c #A8B5CA",
"<X c #A7BAD4",
"1X c #AEC3DE",
"2X c #B0C2D8",
/* pixels */
"[ [ | O.X.[ ' [ { { ' Q z.R.% j Y.@.{ ' 1.' K 6 2 W.n.` 1.| O.O.P 6 - * # X K T.E.r.l.e.Y ( #._ | ` 2.:.Q *.^ o . B u.[ ` G o.| ",
"5.f.5.@.O.O.{ ` ` ' ' -.9.J.# K [.) ' [ ` '  .2 * R.n.`  .] ' ' 1.C 3 o # c {.:X2.` [ | _ o.e.O.f.| ` G k S S O   e u.} [ ) #.#.",
"@.7.1.| { 1.1.X.{ -.` ;.] 8.# 2.W.( T R Q ` -.q * J.v.' | [ ' [ &.D e % % E }.4.` ~ ] | | ' T m ( G c u y p r o o y R.r.T T o.e.",
"' ' ) ` ' { 1.4.' { ' ] L ] * y.4.| T c ` Q K y # 3.6.Q ' Q ) ' ^ Z > o o S `.Q S ] -.} Q c q j j j j C H C , o % ; G.w.[ +.o.| ",
"[ ' ' [ ' Q K Q { { 1.! P G * ;.' | ' v c U A u $ ] w...O.} ' } $.d & + o i U.=.i D E E ! H C Q T Q U ! ^ S 8 & o ; I.v.] | ` [ ",
"T ` ] 1.2.-.{ -.C M S t y e $ ;.} T } G u u B ; * H } } O. .) R a 9 + & + & $.D D E V B E / Q ] ^ ] ! ! ! Z ; + X 7 H.H.-.} ~  .",
"K Q K c j h 4 $ y 4 6 r 7 , & 8.} G ) ~ U 0 u - o - u u x c g 0 : : % o : & V Z Q L M i B B x p x B B B i e & o % # M H ~ -.' U ",
"5 z z j H z.R.K.K.x.G.K.;.B # *.R Y U ..w.x % - % % % % * 0 w * % e e % e % % % e e 7 3 3 - * * ; = % #   . % + # = ; * X X % t ",
"Y.z.M.Y.J.6.] 4.;.] *.&.N = 6 ;.Q G G R Q 0.:.- o u R 0.c.v.T.%Xv.w.3.y.y.r.r.c.2.Q { J T r.v.j * O % s.p.H.Q.v.3.>.w.H.t.* U *X",
"6. .1. .-.>.] { &.&.&.Z r r M *.T T G c A w.L.0.. A L._.{.{./..XY.n.z.m.h.r.r.z.%Xr.R Y ( O.N.y.V , y K.H.p.v.w.y.-.] M.@X! V `.",
"r.y.z.1.1.9.4.-.] &.P i k M N &.| } G t u U w.w.o C {.L.v.M.z.2.+.+.O.O.| [ [ ( '.o.n [ O.[ [ 2.>.r e 8.t.;.-.-.-.y.y.u.`.E - P.",
"7.z.J.g.1.4.1.1.{ ` P L ] N 7 ] Q [ F c G T 0.v.- t ~.w.+.w.e.2.5.f.e.#.2.#.o._ k.[ J O.o.| ) r.R.a , ! 3.4. .2.J.n.c.c.`.} o u.",
"m.m.N.g.6.z.6.y.-.] ` -.3.Z 2 Q ` ` F T -.{ 3.J.U u Y.y.6.6.e.5.2.#.O._ ( [ [ ( | O.[ @.| | | x.*.& + B -.{ T J b.[ e.B.~.U   >.",
"S.e.2.| O.2.1.6.O.1.&.-.1.L 6 C O.[ J ' 2.{ -.y.U k z.2.{ ` ' ) ( ( m v v m ( ) Y ( ) 2. .' ( 4.V ; ; Q :. .( ( m ' S.i.U t # *.",
"E.b.b.e.5.7.[ 1.{  .-.] ' Q t 6 G ` ) ' 1. .-.] 2 k r.2.' [ @.O.O.| [ ' | 2.r.h.O.) ( ` | | 2.2.r ; o ] 2.O.| _ ( 5.r.' G Q 4 S ",
"O.5.n.r. .` G H  .` ' ] ' H 6 * 5 J ( T K F l $ @ T Y.J.7.6.r.[ ( ( ` |  . .| .. .]  .` 4.z.c.! a r o w.J.M.5.[  ._ Y [ 2.! o e ",
"@ # # q 4 4 * o @ f 6 2 6 = % *.h._ o.Y Y Y R ..q 4 c j C 5 c 3 g c Y Y U T Q E U } E R A C u x t % % L E E ! 2.) [ o.c.w.U + + ",
"P C k y = o 0 u C C b ` 1.M d `./.l.N.S./.S.N.B.T # j r.n.x.6.N.+...R ~ U p 0 ; & o % = 0 4 4 # o # 8 i 8 8 i 0 R e.r.e. .R 8 d ",
",X+XK.>.^ A L.&X[.W.Y.Y.G.C ; t.#.| +.#.| | ' 2.K * Y.[.' 5.O.T R R U G U } E y t o B ,.y.t.v.Q t ; y W d 8 u e O.w.e.O.:.E p `.",
").J.J.;.0.B B. X{ { { &.1.N ; ^ ) o.| 5.2.e.:.r.c q z.' ' ( c F m Y Y G Q :.-.L e e p.+X>.] i.w.^ y : ,.I d p e :.O. ...w.U s ;X",
"y.1.t.*.0.p w.w.r.1.{ 7.4.p + U w.#.Y ) | 2.` U q 1  .Q J ( 5.n ( G F ( Q H H Q u - U I.x U ../ ,.A + q.I W i 8 `  .2.R w.U & I.",
"9.;.-.*.w.A i.2.4.1.1.1.:.U % 0 R w.O.r.w.R j 0 ` v.1.T [ X.[ b n n J K L G H ] / ; u H.,.i.0...*.U + a.=.I r Z :.-.2.] w.S + =.",
"Z M A :.i.U w. .{ 7.7.{ -.Q ; % R O. .} ` u ] {.=X6.F { ) X.g.( b P ( G F Q Q A B 4 B H.} ..R ^ } Z + s.<.i 9 } t.] } } -.e : $.",
"6 1 4 R 0.u :.:.6.[ { 1.4.A . + x R  .r.2.4 ` .X .F ' ( ) X.A.m b F J K R U U B A + = } 0.,...} } } 9 *.=.9 y W ! `  .T S - = r ",
"$ 2 # * o 0 w.O.2.@.' 6.-.* e 4 % w x j c o G :.G G ` ' ( O.d.X.l J P J K P P M k * o u Q A c c B C ;   . & , # e 3 3 3 $ # % o ",
"$ 6 j Z u 0 :...O.2.[ 1. .% Q p.i.r.2.T H o k t.G L ` ` { g.g.J h b K P K P P P y ; % # * - - % # X $ r &   o r C 2.T.B.r.-.L 7 ",
"-.9.n.K.w.u :.O.[ X.[ 1.-.# E `.)./.^.~.B.q t *.C G Q { ' ( F l P J K F Z C S P z # u *.y.M.w.} { ] ] t.U.W : H.@X}.}.[.R.Y.J.y.",
"4.3.v.B.w.- ..2.7.X.` 1.r.% A L.' [ '  .r.4 - ] Q E H K H c J 1.7.[ ` ] ] P L ] L 2 3.$X XB.#.r.m.N.y.8.U.L X K.).c.1.@.O.2.3.3.",
"4.1.v.M.:.- ..2.d.1.{ X.6.3 A ~.R ' R R  .u * H H ] Q C C T K F k h h H ` P L Q P * ] R.Y.S.g.g.g.| z.y.&.7 7 K.z.z.h.5.O.e.z.2.",
"9.6.v.M.T * Y m X.1.X.1.{ 2 B M.( ..| | O.x X % k S Q H C C k 6 C k h M S Q ] &.n.6 F z.B.S.m.d.O.T { 6.;.6 7 K.v.z.5.7.O.5.g.r.",
"4.6.x.M.A t w.( J 1.7.O.z 1 k :.) R ..[ ..c % t k 0 k E H C Q { C F C h k N Z M M * F n.z.@.5.b.@.g. .z.Q.S * v.S.2.@.k.b.f.2.@.",
"3.9.x.t.- 0 i...` d.7.{ 6 4 B -.+.) | O.Q u X 3 B e B &.&.] P e 4 Z ! Q L H M $ X = Q y.6.2.g.[ 2.B.n.R.K.Z 4 &.4.z.n.b.6.5.6. .",
"4 % u : : A U / H P P C u 0 0 / Q Q -.C i ; # # # % N S Z B ; e r M D D D D 7 O 7 = y ! &.P G ] ;.! P L S Z i p U $.L h k 6 4 h ",
"G Q p u . d & B C ! ] z t p p p B - = = 3 # % e M B L B i B i S 7 & > & > 7 o & : , 7 6 e y 7 % = 4 e y 0 : : 8 e o ; ! ] ` P P ",
"J.x.M.i.8 E @Xi.] P T K 4._.~.} :.4.v.3.# * y.).4.4.4.] ~  .-.w.s.Z L i # * # y G ;.3.] { y.c.r.C H ~ ] ~ Q ! ^ B - } =XJ.x.J.C.",
"1.1.../.0.- %X<Xn.1.7.2.2.r. .~ } K y.J.* u v.T 2.| | -.1.1. . .G.1.4.&.2 2 k {  .6.y.r.6.r.z.v.7.2.5.r.r.e.w.2.w.v | $Xx.x.g.{ ",
"b.6.1.$XT o 2./.O.( X.@.' ` '  .-.} z.T.1 $ e.S.1.|  .e.g.#.+.+.2.1.2.e.q h O.1.S.b.n.b.b.b.z.g.S.S.b.m.m.b.m.r.D.T T S.X.7.d.d.",
"Z.[ S.O.* c e...[ ` @.X.| +. . .[ y.w.[ t * q ( e.g.e.m.f.@.g.N.6.g.1.g.f v b.7.5.b.b.h.g.b.S.S.k.k.m.d.e.g.g.g.S.( f T h f n 7.",
"].h.N.q v v G ` l ( @.X.` ) R } 4.n.} 3 5 3 3 J #.e.O.O.O.o.k.f.@.2.1.z.1 n b.b.7.g.g.@.O.5.g.d.d.d.k.d.g.z.f.7._ w # v O.S.]..X",
"b Y c 5 - C O.H O.1.7.7.r.2.A B x 1 e - - * 0 c z.M.e.5.h.S./.g.f.2.M.N.$ j e.J.W.z.' ` 6.m.g.1.7.1.X.1.6.d.{ J - # $ 3 j T ' c ",
"$ @ 1 0 o 0 R } 7.n.x.z.9.P ; = X - 0 0 7 - * # 0 T ~ 2.B.1.' T ] 4.6.C * * 6 z 1.{ C H v.r.G C l f 1 5 5 1 1 2 5 j h t j 3 % X ",
"Z.Z.z.y.Q - B A Z 3 C k 7 & 8 ,.a.H.M.u.w.*.Q Q k 4 * * # = 4 i 2 * $ X 4 k t 2 2 X # * ; * = # @ 1 6 F P 1.Y.{.$X$X>Xn.1.4.w.y.",
"z.z.-.y.H.8 * % 2 @ $ @ $ X / ,X`.).P.K.K.H.v.H.Q.] U t * 4.4.-.Q H H t y k N H &.7 r e o = <.&.9.z.x.u.6.m.Y.[.W.W.>X4.t ] :.w.",
"7.1.` 3. XA * u y 9.C &.G.i e q.] ! Q ! -.*.-.y.R.U S S k ).*.} -.S H S N ;.v.G.;.e $ = O y *X(.u.z.6.X.{ 1.1.1.6.4.@Xn.C w.w.w.",
"N.e.h.r. XU 0 i.:X<X&.z.~.~ e } -.| | +.1. .2.M.2.k z Q P R.Z &.>.B C P 4 &.4.! &.&.r = ; N ;Xx.-. . . .2.b.b.d.5.@.F.XX5.N.b.r.",
"j.#.h.#./.R w M.@XB.d.C.y.Q 8 :.[ #.#.o.| [ 5.S.c G K T C G.[ 7.Q G T Q * Q 4.>.] H.] = X y (.E | O.+.#.#.#.5.d.d.d.k.oXl.g.b.N.",
"V.j.f.e.N.Y w 5.C.@.S.T.r.G u :.[ #.#.o.#.#.S.|.g J K T 1 ' &.] 1.' H q z { >.-.! 9.4.t X k u.-...| +.e.d.d.j.V.d.j.d.F.A.#.l.A.",
"f.l.o.#.| u v N.m.g.g.[ r.A x Y | #.#.o.o.f.D.oX( h j -.2 2 N M F T n # O.r.1.{ 1.P w.C X y H } r.+.o.e.g.d.d.j.j.j.V.d.!.k.Z.b.",
"e.N.e...j c C v.4.w.H C x.L e ~ ' 6.r.e.g.g.S..X..g A ..N X r N e 3 t 4.M.4.1.{ -.] &.` X 7 7 a c m.c.Q z.r.7.d.d.V.j.k.d.z.x.9.",
"M.i.B.} G 4 E y.*.3.S y.y.W 7 Z ] y.u.4.2.y.c.w.q U A a @ @ s N 4 T R.y.| 4.| 1.P ` 4.&.X 7 a D - F W.J.t.c.Y.n.C.b.j.k.x.m.z.G.",
"x 0 p Q k # k H.y.-.-.G.J.S e * * = - # # 3 3 * q u 0 = & r W $.3.M.|  .6.2.b.{ [ ` ;.;.# & # = k X C C B w.a...b.b.k.b.m.&.Z N ",
"o 3 # % X o 0 ] G M B k G * q @ 5 * j 2.w. .[ R 2.i.v.:.r r <.G.u.2.:.2.b.z.[ [ -.[ 7.] = @ 7 k C - e * .   . % 1 3 5 1 1 = X # ",
"; o t U } c } [ * T r.z.n.W.W.T. .G :.].{.N.N.B.r.N.).y.= 7 =.! Q 2.M.g.5.5.o.[ [ [ 7.P $ 2 z.}.c.y.../ p : 8 U Y m Y v c t % p ",
"y.* H 2X&XM.R.^.K B.1X:X@X'.Y.z.N.w.+.2.+.| O.e.z. .y.c.Z H 8.! ` f.e.m.2._ g.' [ ` 1.J 1 6 K.@X:.w.t.i.8 8 ~.#XoX/.'.'.^.:.p ,.",
"M.Q t ~.~ ' ' :.R c $Xb.e.O.d.7.} +.+.O.O.#.#. .e.-.w.y.Z 7 L 4.' n N.D.7.X.( 5.X.` 1.n f 3 6.-.w...0.a.p A ~.a.a.:.+. .w.} x 0.",
"E ^ - Q } ` ' M.K X r.x.[ f.7.o.| e.O...+.+.O.2.| r.[ C 6 3 Z ;.5.n n e.@.' d.X.[ ` 7.J h 5 6.[ | R w.w.8 p ..0.+.e.i.| e.2.u B ",
"*.B 0 :.~ -.-.2.G 1 [ b.O.5.k.5...| _ +.#.+.#.@.O.` G H k - B ! r.) J { 2.O.| -.{ ` 1.' l h { ' (  . .3.e C p.2.i.e.5.5.5.-.U k ",
"w.H x M.4.-.| 2.c 5 1.r. .h.b.[ :.e.e.r.e.+.[ R X.{ ] Q k = i E r.| '  .2. .-.2.P K { K j 5 X.{ o.[ Q -.i k ;.Q ..+.k.g.5.O.&.{ ",
"} k t v.r. .] 3.{ q  .r. .O.6.[ +.+.e.+.+.h.h.N.z.n.y.4.G 7 r C w.2. .-.-.-.-.>.;.{ &.P F 1 -.` [ [ { -.e % M h ..+.@.O.X.1.1.4.",
"*.B t 0.w.-. .4.' 1 ` -.2.] r.r.:.e.i.r.r.c.e.i.y.z.y.4.Z = 7 B 4.>.-.*.&.&.*.;.D P *.] H 1 7.1.O.2.4.4.t # y B ..| { O.6.z.1.' ",
"c 0 * G ] } *.-.S 6 ] H ] Q ] K | | 0.+.-.' P Q ' ! S S i % , V i i u r r r r 7 7 D =.P N $ ' 1.( G G C 9 % y S ] ( G F F J Z N ",
"- * o - u j u 3 = X 2 * k 4 = u % w * * 5 1 6 1 6 2 # $ o   & e ; & & & & & O O > s V a 7 $ y e 1 3 y e ,   . & = * @ @ $ 6 2 $ ",
"j A A Q 4.t.v.y.J.;.&.&.>.M X ; U w.~ ' ` H H @ @ = $ : > ; , + ; % O o       . .   . X > S B k u C ! Q W 9 .     2 H ;.y.9.] D ",
" .w.:. .-.! *.&.*.4.8.u.(.u.= = ).&XT.v.y.2.6.$ = D &.;.>.<.=.d r , < + .   . < 9 s V N V u.>.u.r.w.t.,.s.%.r O o Z >.y.] S D P "
};
