/* XPM */
static char *d748c285c9494e56e0dcef8866b3c52evF7qgqMId61Xg94d[] = {
/* columns rows colors chars-per-pixel */
"64 64 77 1 ",
"  c #635D5D",
". c #645E5E",
"X c #655F5F",
"o c #68635F",
"O c #666060",
"+ c #676161",
"@ c #686360",
"# c #686262",
"$ c #696363",
"% c #696460",
"& c #696461",
"* c #6A6562",
"= c #6B6662",
"- c #6B6663",
"; c #6C6763",
": c #686264",
"> c #696365",
", c #6A6464",
"< c #6B6565",
"1 c #6A6466",
"2 c #6B6567",
"3 c #6C6764",
"4 c #6C6666",
"5 c #6D6767",
"6 c #6D6864",
"7 c #6D6865",
"8 c #6E6965",
"9 c #6E6966",
"0 c #6F6A66",
"q c #6F6A67",
"w c #6C6668",
"e c #6D6769",
"r c #6E6868",
"t c #6F6969",
"y c #6E686A",
"u c #6F696B",
"i c #706B67",
"p c #706B68",
"a c #706A6A",
"s c #716B6B",
"d c #716C68",
"f c #716C69",
"g c #726D69",
"h c #746F6B",
"j c #706A6C",
"k c #716B6D",
"l c #726C6C",
"z c #736D6D",
"x c #726C6E",
"c c #736D6F",
"v c #746F6C",
"b c #746E6E",
"n c #756F6F",
"m c #75706C",
"M c #75706D",
"N c #76716D",
"B c #76716E",
"V c #77726E",
"C c #77726F",
"Z c #78736F",
"A c #746E70",
"S c #756F71",
"D c #767070",
"F c #777171",
"G c #767072",
"H c #787370",
"J c #787272",
"K c #797373",
"L c #797470",
"P c #787274",
"I c #7A7474",
"U c #7B7575",
"Y c #7C7676",
"T c #7D7777",
"R c #7D7874",
"E c #7F7979",
"W c #807B77",
/* pixels */
"sbJIFFbbbFFFzzzFJFFFbbbFFtJEFzFzFbbbFFFFFFbbbbbbVVmmmVVVm6ZWZimi",
"#4tstt4t4tss444stt4444t4s4FYzzzs44t44t4t4ttttstqqq6=;6q6i;VRmqi6",
"#<stt44t44stt4sttt444<44t#zIz4s44<ttttt44t4ttstqq666666qqoiL0;i;",
"tszzzssssssttt4tszssstss4#zIz4t<4ssbbzssssstt44tiiqq000qqoiZ060o",
"<4tt4ttsttt4<###s4t44444t#sIz4t4<<tsss44st4<<###qq3333qqq@qF0=q;",
"4ttt44tszz444t<#4t44<44<s<zJstst<t4sst4tssst4<<#66<==33qg=gVq=qq",
"tsszsszbzsttszt4zttt4ttts<tF4<sttttssszzsstsstttqqqqqqqqg@tV3=q;",
"4tt444ts<+##4tt44t<<<<4<z#tb4<ss4tt4ttts+<#<444tq;===<q=q@qV3@q;",
"t44sssttt<#ttt#<Ft<<tzzt4ttst4tttstssssss4#<<##4Fu<>tzzt>tzzt<et",
"<<t444t4z<<tz4<4st<<tst<sbbbzzsz44ttttt4z444t<4sz3<wtutwtuDztetz",
"tszzbzbzFzsFFzszsszbbbzzsbJJFzzzszzzbbzzIbbFFzzFuzAAFAxutAGAuuzF",
"zzbbFbbbbbzFFzszzzFFbzzb4sbFbzstsbbbbFbzFbbFbszFAAGDAAAAuzGGDAuA",
"<t4sttt4s44zs4<tttt<<<tz4tzbzs4444ttttttt4tst#<tuuuw>wuAwuGGGAuw",
"444tttttstzbz44sst<<#<ts4sbbssst44t4tt4t4tszt<<suuwwwwuu>yAGGAy1",
"tszszzssssbFzttbzst4szztttzssttsttssszstssbFz<tbAuwwuAuuuuuxAxuy",
"<4tttttt<<4s4++ts<#<sz4#4tst4t4t<44tt44t<<zzt+#tuw>wuAy>Axuwuuxx",
"ttstsssstttbbt44zzzzst44tt<<<<ttttttt<ttzttzztttzuuztt<<stttttzs",
"<<<<<4t4stszb444tt4<#<<<szttttssttzztttztttsz<<ttt<=+<<<tt<<<<tt",
"bbbbFbbF<#<ts##<JFzssbFJt4<<#<ttttzttttzt<tzs<#<IFzzzzFIFzzttzzz",
"444t4t4tt#<st<<4tt4<44sztt<#<<4sttzttttztttFFtttttt<<tzz<<+++<<<",
"4t4tttstFzzJJbbF4ttsszzszbzzzzbbzzzzztzzztzFIzzzttzzzzzzzzzztzsz",
"FFJFJJJJFzzFJbbFFFJYYIIJzsbbzzzzzzFFzzzFFzzFFzzFFGIIIIIJIIIIEIII",
"<<<444t4s44ss4tz4tt44tst4tzbbs44zzzzztzzzttzztzFtt<<tttt<<tsst<<",
"t4t4tttt4<<4s44zzzt4ttzz4sbJJbs4tttt<tttz<<tt<tFztt<<ttz<zFIFFtt",
"#4sszsttst4st4tzzs<<tsbbt<bEbts<<ttztszstttzt<<tt<<<<zzFztzIztzt",
"44ttstt4s444t#<4s4444t4<t#zJs4t<<<ttzzztzt<tt<<<tt<<ttt<t+zFt<t<",
"4tttstttzttt4<#<ttt444++s<sJt<s4tttttztzztttt++#zttttt<+t<tbt<t<",
"ttt44tttzt4tt<4tzststt<#z<zFt<st<tttztztztttt<<tttt4tt<+z<zFt<tt",
"st4tt4tt4<#t444zzt444sstz<tb4<sttttttttt4<<tt<<tzt<<<tt4z<zF4<tt",
"ttttttt4#++<<<<ss4##<tszs+tz<#t4ttzzzttt<++<<<<4zt<#ttzzs<tz<<tt",
"4ttsst4<t#<4t<4st4<4tzszs#sF4<t4ttttztttt<<tt<<tztt4tzzzz<zz<#tt",
"ttszst4<zstsstsbssszbbzsbtFIzszsttztztttzttzzttszttzzzt4FtzFttzz",
"zFFFFFFFFzFFzttzFzszzFzzttzzzzttFbFzzzFIF4FIztztzzzzzzFItzzzsztt",
"4tzztttzt<tst<<tztttttztttszzztttzzzttzFt+tFt<ttttt<t4tttttszttt",
"<tttttttt<tzzttzttt<ttttttzzzttt<<tt4tttt<zFt<ztttt4ttttttzzzztt",
"<tszzttsttzzzttzzt4ttzzttttztztt<tzzzzttz<zIttttzztzzzzz<tzzzttt",
"ttzzzzsztttzt<<tzt<ttzttttttttttttzzzztzz<zFt+<<tt<<<ttt<ttzzz4t",
"<ttztttzzzzzt<<ttt<<<tt<tttttttttttzttttztzIt<t<t4t<<<<tttttttt4",
"<tztttttszzzzttztt<<ttt4tttt4ttt4tttttzzz<zIttztzstztttttt4tt4tt",
"ttzzztzs<<<tt#<tzztttzzztt4ttttttzzt4tzz< <z<<t4zzttttttztt<<ttz",
"ztttttttFt<<<<<tFzt<ttzz<tttt<<tztzzztttzttt4<<tFz<<tFzt<tttt<<t",
"tt4tttttzttzz<<tzttzzzzztztttttsttttzttttttzzt<<ztttzzzttttzt4tz",
"zzzzzzzzzzzIIFszFFzFIFzzzzzzttzFzzzFzzzzzzFIIFzzzFFFFFFzzzzzzzzF",
"zzFFbFFzzzzFFzzzzzzzFFzztFFFFzzFzzzFFbFFztzFFzszzzFFzzzzzzFFzzzz",
"ttttzzttt<+t<<<tst<<<ttt<tFFFzt4tttttzttt<+<<<<zttt<<<ts<tFIFztt",
"<<tzstttz<<<<#tzzz<<<ttz<4FFFzt<<<4tttztzt<<<<tzzzt<<tzz<tFFFzt<",
"<tzzFzFzzztzzttzFzttzzzz<tzzzttttttzzzzzFztzzttzFz4tzzzz<4zzzt4t",
"<<tzzztttttzt<++<<<<4t<+ttztt4tz<<tttztttt<tt#+<4<+<tt<+tttttttt",
"tt4tttttFt<tztt<tzttt<++tttzt+<zt4ttttttst4zt<<4zztt4<++t<<zt +F",
"ttttttztt<<ttt<tzztt<t4tttzzt+<zttttzttz<<<tt<<tstttttttz<tFz+<F",
"ttttttttt++<tt<tttt<<tzF<<tt<++t4t4ttttt<++<t<<tttt<<tzF<<<tt+<z",
"<<t<ttttt<<tt<tttt<<ttzz<<4t<<<<<<t<tttt<<#tt<tttt<<<tzz<<<zt++t",
"tttttttzzzzzzttzttztzztzzFFFzzzzttttttzzzztzzt4ttttzsztzztzFzztz",
"zszzzzzFFzzFzttFszzFzzztzbFzzFztzzzzzzzzFzsFzttzzzFFzzzttzzFFzzz",
"tzszzzzzzzzFzttFzzztzszz<zzttzt#ztszzzzzzztzzttzzsttzzzzttztzzt<",
"t4t4ttttt<tzt<tFt<<<<<tztzzzzFz<<tt4ttttt<<tz4tztt<<<<tztzzzzzst",
"ttzzzztzt<tFt<ttzzttttttttttttt<ttttttzzz+<zt<t<ztttzzzz<tztttt4",
"<tttztttz<tF<<t<zt<tttt<tttttt4tt4tzzzzzz<tFt<4<st<ttttt<ttztttt",
"<tttttttztsF<+<<tt<<<tt<tttt4tt4<ttzFzztFtsFt<t<ztt<<t<<<ttzt<4t",
"<tttttttz<tFt+t<zttttttttztt4ttt<<tzztttF<tF4<t<tt<<<t<ttttttttt",
"ttztzsttt+tzt<ztztttzzztztttt<ttztzttttzt+tzt<t<tt<ttztttttt<ttt",
"ttzzzzzzt+tF4<ztzzttszzsstt<<<ttzztttzzzt <z<<ztzt4tzzzzttttt<tt",
"4tttztztt+tz<<ztzttttzzzztt<<tttttttttttz+tzttztztttszzztttt<<tz",
"ttttttttz<tFt<t<tt<ttzztzzt<<ttz+<ttt<<+z<tFt<t<Fzztzztttttt<<tz"
};
